<svg width="20" height="20" viewBox="0 0 20 20" fill="none" xmlns="http://www.w3.org/2000/svg">
<path opacity="0.2" d="M10 2.5C8.48241 2.49956 7.00039 2.9595 5.74971 3.81908C4.49904 4.67866 3.53855 5.89743 2.99513 7.31439C2.45171 8.73134 2.35092 10.2798 2.70609 11.7553C3.06126 13.2307 3.85567 14.5637 4.98437 15.5781C5.45468 14.652 6.17225 13.8741 7.05754 13.3308C7.94283 12.7875 8.96128 12.5 10 12.5C9.38193 12.5 8.77774 12.3167 8.26384 11.9733C7.74994 11.63 7.3494 11.1419 7.11287 10.5709C6.87635 9.99987 6.81446 9.37153 6.93504 8.76534C7.05562 8.15915 7.35325 7.60233 7.79029 7.16529C8.22733 6.72825 8.78415 6.43062 9.39034 6.31005C9.99653 6.18947 10.6249 6.25135 11.1959 6.48788C11.7669 6.7244 12.255 7.12494 12.5983 7.63884C12.9417 8.15275 13.125 8.75693 13.125 9.375C13.125 10.2038 12.7958 10.9987 12.2097 11.5847C11.6237 12.1708 10.8288 12.5 10 12.5C11.0387 12.5 12.0572 12.7875 12.9425 13.3308C13.8277 13.8741 14.5453 14.652 15.0156 15.5781C16.1443 14.5637 16.9387 13.2307 17.2939 11.7553C17.6491 10.2798 17.5483 8.73134 17.0049 7.31439C16.4614 5.89743 15.501 4.67866 14.2503 3.81908C12.9996 2.9595 11.5176 2.49956 10 2.5Z" fill="#1F2933"/>
<path d="M10 17.5C14.1421 17.5 17.5 14.1421 17.5 10C17.5 5.85786 14.1421 2.5 10 2.5C5.85786 2.5 2.5 5.85786 2.5 10C2.5 14.1421 5.85786 17.5 10 17.5Z" stroke="#1F2933" stroke-linecap="round" stroke-linejoin="round"/>
<path d="M10 12.5C11.7259 12.5 13.125 11.1009 13.125 9.375C13.125 7.64911 11.7259 6.25 10 6.25C8.27411 6.25 6.875 7.64911 6.875 9.375C6.875 11.1009 8.27411 12.5 10 12.5Z" stroke="#1F2933" stroke-linecap="round" stroke-linejoin="round"/>
<path d="M4.98438 15.5781C5.45462 14.6519 6.17216 13.874 7.05745 13.3306C7.94275 12.7872 8.96123 12.4995 10 12.4995C11.0388 12.4995 12.0572 12.7872 12.9425 13.3306C13.8278 13.874 14.5454 14.6519 15.0156 15.5781" stroke="#1F2933" stroke-linecap="round" stroke-linejoin="round"/>
</svg>
